HIERARCHY
ROOT Hips
{
	OFFSET -3.958830 18.904000 13.208200
	CHANNELS 6 Xposition Yposition Zposition Zrotation Yrotation Xrotation 
	JOINT LHipJoint
	{
		OFFSET 0.000000 0.000000 0.000000
		CHANNELS 3 Zrotation Yrotation Xrotation
		JOINT LeftUpLeg
		{
			OFFSET 1.800000 -1.400000 0.085000
			CHANNELS 3 Zrotation Yrotation Xrotation
			JOINT LeftLeg
			{
				OFFSET 2.215000 -6.000000 0.000000
				CHANNELS 3 Zrotation Yrotation Xrotation
				JOINT LeftFoot
				{
					OFFSET 2.500000 -6.900000 0.000000
					CHANNELS 3 Zrotation Yrotation Xrotation
					JOINT LeftToeBase
					{
						OFFSET 0.200000 -0.500000 1.950000
						CHANNELS 3 Zrotation Yrotation Xrotation
						End Site
						{
							OFFSET 0.000000 0.000000 0.000000
						}
					}
				}
			}
		}
	}
	JOINT RHipJoint
	{
		OFFSET 0.000000 0.000000 0.000000
		CHANNELS 3 Zrotation Yrotation Xrotation
		JOINT RightUpLeg
		{
			OFFSET -1.800000 -1.400000 0.085000
			CHANNELS 3 Zrotation Yrotation Xrotation
			JOINT RightLeg
			{
				OFFSET -2.215000 -6.000000 0.000000
				CHANNELS 3 Zrotation Yrotation Xrotation
				JOINT RightFoot
				{
					OFFSET -2.500000 -6.900000 0.000000
					CHANNELS 3 Zrotation Yrotation Xrotation
					JOINT RightToeBase
					{
						OFFSET -0.200000 -0.500000 1.950000
						CHANNELS 3 Zrotation Yrotation Xrotation
						End Site
						{
							OFFSET 0.000000 0.000000 0.000000
						}
					}
				}
			}
		}
	}
	JOINT LowerBack
	{
		OFFSET 0.000000 0.000000 0.000000
		CHANNELS 3 Zrotation Yrotation Xrotation
		JOINT Spine
		{
			OFFSET -0.087000 1.940000 -0.288900
			CHANNELS 3 Zrotation Yrotation Xrotation
			JOINT Spine1
			{
				OFFSET 0.000000 1.950000 0.060000
				CHANNELS 3 Zrotation Yrotation Xrotation
				JOINT Neck
				{
					OFFSET 0.000000 0.000000 0.000000
					CHANNELS 3 Zrotation Yrotation Xrotation
					JOINT Neck1
					{
						OFFSET 0.000000 1.600000 0.340000
						CHANNELS 3 Zrotation Yrotation Xrotation
						JOINT Head
						{
							OFFSET 0.000000 1.667000 -0.240000
							CHANNELS 3 Zrotation Yrotation Xrotation
							End Site
							{
								OFFSET 0.000000 0.000000 0.000000
							}
						}
					}
				}
				JOINT LeftShoulder
				{
					OFFSET 0.000000 0.000000 0.000000
					CHANNELS 3 Zrotation Yrotation Xrotation
					JOINT LeftArm
					{
						OFFSET 2.700000 1.550000 -0.730000
						CHANNELS 3 Zrotation Yrotation Xrotation
						JOINT LeftForeArm
						{
							OFFSET 5.450000 0.000000 0.000000
							CHANNELS 3 Zrotation Yrotation Xrotation
							JOINT LeftHand
							{
								OFFSET 3.450000 0.000000 0.000000
								CHANNELS 3 Zrotation Yrotation Xrotation
								JOINT LeftHandIndex1
								{
									OFFSET 0.750000 0.000000 0.000000
									CHANNELS 3 Zrotation Yrotation Xrotation
									End Site
									{
										OFFSET 0.000000 0.000000 0.000000
									}
								}
							}
						}
					}
				}
				JOINT RightShoulder
				{
					OFFSET 0.000000 0.000000 0.000000
					CHANNELS 3 Zrotation Yrotation Xrotation
					JOINT RightArm
					{
						OFFSET -2.700000 1.550000 -0.730000
						CHANNELS 3 Zrotation Yrotation Xrotation
						JOINT RightForeArm
						{
							OFFSET -5.450000 0.000000 0.000000
							CHANNELS 3 Zrotation Yrotation Xrotation
							JOINT RightHand
							{
								OFFSET -3.450000 0.000000 0.000000
								CHANNELS 3 Zrotation Yrotation Xrotation
								JOINT RightHandIndex1
								{
									OFFSET -0.750000 0.000000 0.000000
									CHANNELS 3 Zrotation Yrotation Xrotation
									End Site
									{
										OFFSET 0.000000 0.000000 0.000000
									}
								}
							}
						}
					}
				}
			}
		}
	}
}
MOTION
Frames: 14
Frame Time: 0.016667
1.576120 17.885790 -1.527280 -3.408927 -15.031372 7.257971 -15.054903 13.055608 3.241772 -3.607304 -1.936975 -12.993658 -5.008462 3.563267 8.234886 -1.051350 4.310791 3.717581 0.252500 -0.391590 -0.203210 18.364508 -11.083909 2.894009 -0.433265 0.379457 -4.566240 8.026935 -6.755343 14.038753 -0.832726 -4.839277 2.786417 -0.113030 1.405220 1.276460 -3.657449 -1.107077 -7.426737 10.796366 3.167046 8.993617 -2.533609 3.844622 2.833368 2.960349 -1.752708 -9.749107 -3.443889 5.155884 29.071301 -6.381020 3.377520 -8.760540 -17.645210 -8.880672 2.958711 -8.234558 -1.533312 0.003499 14.810195 -17.450612 -3.087209 -4.508221 2.829344 0.974520 0.810270 0.060530 0.810940 11.915760 12.000005 6.307947 14.649656 9.385416 -3.966542 -15.171530 20.943087 -2.116783 1.537129 -1.430567 -0.407650 0.455400 0.324750 0.087730 
1.588010 17.873610 -1.528170 -3.166167 -15.364580 7.653103 -15.037012 13.010620 3.188355 -3.239721 -1.979762 -13.345440 -4.638248 3.467272 8.138049 -1.109404 4.316542 3.734447 0.211160 -0.436270 -0.234910 18.393496 -11.121559 2.862168 -0.711439 0.365637 -4.840752 7.629991 -6.606415 13.610056 -0.786747 -4.804899 2.805032 -0.106030 1.462750 1.257740 -3.730183 -0.971912 -7.311399 10.700214 3.273620 8.128290 -2.865095 3.878427 3.357660 2.790685 -1.835322 -9.549466 -3.457809 5.171670 27.882689 -6.280390 3.172100 -8.360770 -17.010434 -8.638523 2.895611 -8.394573 -1.864518 0.105450 14.719836 -17.427074 -3.113920 -4.566348 2.786777 0.958860 0.849640 0.010590 0.798770 11.616165 11.639031 6.152688 15.016254 9.552872 -3.875328 -15.112450 21.075602 -2.156618 1.505213 -1.419404 -0.454180 0.499720 0.366110 0.081910 
1.616480 17.855630 -1.531440 -3.159845 -15.974315 8.218120 -14.993599 12.974032 3.093732 -2.116178 -1.972509 -13.715568 -4.149617 3.322916 7.829551 -1.171127 4.313434 3.753842 0.212090 -0.434320 -0.249340 18.442903 -11.181581 2.827551 -1.166200 0.449816 -5.437283 7.471414 -6.514033 13.420290 -0.749499 -4.788913 2.820117 -0.072290 1.517790 1.249400 -3.869412 -0.788448 -7.163365 11.246922 3.222806 7.158608 -3.656535 3.829704 3.845075 2.660207 -1.932327 -9.106320 -3.437213 5.378563 26.350684 -5.843910 2.945340 -8.220470 -16.839428 -8.282697 2.677807 -7.560455 -2.181605 0.320001 14.350467 -17.132730 -3.059006 -4.619486 2.774560 0.935250 0.891230 -0.034210 0.807860 11.631532 11.061495 5.747259 14.304041 9.975643 -3.564265 -13.930338 21.712699 -2.003019 1.461590 -1.423059 -0.485250 0.540450 0.383140 0.082230 
1.637310 17.853220 -1.549140 -2.525186 -16.507123 8.323202 -15.011115 13.060287 3.027561 -0.755826 -1.918553 -13.947979 -4.106464 3.405017 8.288943 -1.177369 4.377002 3.731552 0.222030 -0.438710 -0.231060 18.408132 -11.200927 2.787694 -2.135654 0.535891 -5.782628 7.400134 -6.479221 13.276621 -0.745060 -4.758941 2.817088 -0.074810 1.516930 1.266980 -3.778480 -0.882913 -7.102873 10.163530 3.224312 6.898899 -3.481770 3.749409 4.194395 2.653509 -1.849208 -9.190423 -3.312000 5.179580 26.023564 -6.031770 2.836240 -8.521790 -16.911990 -8.625619 2.894858 -7.175480 -1.874087 0.314884 14.736729 -16.483721 -3.095733 -4.623160 2.779015 0.948750 0.889920 -0.025140 0.809930 11.809105 11.323682 5.767533 13.453146 9.912367 -3.566444 -13.423638 22.038971 -1.894513 1.454398 -1.422352 -0.483950 0.536320 0.380020 0.077640 
1.669310 17.850540 -1.562170 -2.266349 -17.073962 8.411916 -14.992586 13.125156 2.943485 1.044429 -1.789120 -13.949893 -4.145875 3.516189 8.632527 -1.183682 4.447644 3.706214 0.249640 -0.414950 -0.201940 18.402669 -11.239252 2.784488 -3.177994 0.608718 -5.983149 7.990397 -6.573335 12.950347 -0.752724 -4.775557 2.802835 -0.057290 1.506990 1.261640 -3.783168 -0.879997 -7.070956 10.035710 3.114010 6.843133 -3.944426 3.696196 4.081734 2.739411 -1.765098 -9.093906 -3.150014 5.269616 25.924673 -5.842550 2.893170 -8.847460 -17.186813 -8.670942 2.763834 -6.218762 -2.053389 0.391228 14.368729 -16.236464 -3.010340 -4.605536 2.779201 0.963690 0.878050 -0.015680 0.819090 11.887032 11.253136 5.717717 13.141755 10.023180 -3.474452 -13.219856 22.081264 -1.867648 1.457819 -1.430122 -0.490880 0.541430 0.356800 0.072660 
1.691600 17.825000 -1.576290 -1.835005 -17.253965 9.080500 -15.021756 13.095497 2.839701 2.705620 -1.781041 -14.741082 -4.371245 3.646687 9.008932 -1.243075 4.560739 3.664531 0.262040 -0.394250 -0.189630 18.387552 -11.222847 2.737379 -3.940179 0.743817 -6.688234 8.491520 -6.600383 12.570179 -0.717794 -4.816317 2.774822 -0.004480 1.550580 1.279430 -3.728478 -0.824093 -6.904093 8.885829 3.246775 5.614180 -3.486973 3.508457 4.856374 2.826012 -1.316828 -8.747552 -2.129116 5.148974 23.699088 -6.761050 3.168830 -8.395940 -16.360100 -8.288204 2.532626 -6.597827 -2.925624 0.527670 14.422011 -16.807546 -3.101020 -4.686004 2.788779 0.916830 0.948000 -0.059560 0.816650 11.028223 10.429076 5.380339 13.284999 10.314493 -3.139748 -13.146739 22.336988 -1.988133 1.407117 -1.486267 -0.512250 0.550630 0.366330 0.062180 
1.714160 17.794650 -1.580770 -2.178821 -17.532382 10.167998 -15.011050 13.000261 2.720998 5.011625 -1.732905 -15.799074 -5.023725 3.952323 9.624269 -1.281977 4.768508 3.605618 0.246050 -0.387780 -0.219490 18.423754 -11.222853 2.714624 -3.622772 0.894942 -7.617253 8.495082 -6.477626 12.383029 -0.643306 -4.851293 2.770788 0.059280 1.656710 1.291280 -3.812517 -0.605324 -6.716325 9.024539 3.379031 3.901041 -3.446511 3.335845 5.664208 2.873393 -0.840628 -8.426828 -1.022032 5.187317 20.968891 -7.406310 3.399970 -6.348670 -15.516879 -7.976059 2.279406 -6.728823 -3.859996 0.779627 13.581989 -18.070915 -3.076808 -4.815652 2.812682 0.802250 1.075300 -0.157430 0.826220 10.171006 9.511764 5.101126 14.048025 10.401274 -2.767961 -14.081805 22.208940 -2.386727 1.348453 -1.585515 -0.544630 0.573050 0.386710 0.073020 
1.732880 17.780570 -1.590630 -2.537355 -17.760226 10.538564 -15.006376 13.013041 2.649206 7.317880 -1.576358 -16.423522 -5.548708 4.362443 10.802583 -1.248992 4.957883 3.508250 0.282770 -0.337120 -0.200670 18.429695 -11.206127 2.720940 -3.196869 0.989036 -8.036046 8.473921 -6.425604 12.468138 -0.650418 -4.835342 2.761295 0.085800 1.647530 1.325220 -3.826245 -0.599227 -6.668032 9.192630 3.293344 3.462627 -3.470884 3.135224 6.109655 2.927037 -0.633182 -8.473984 -0.628886 5.211157 20.313217 -7.631330 3.606810 -6.364460 -14.731914 -8.033090 2.305837 -6.860011 -4.686921 0.911134 13.345029 -17.399661 -3.017536 -4.839871 2.846752 0.771850 1.092400 -0.144950 0.838480 9.320369 9.251001 5.107003 14.890729 10.364793 -2.665569 -14.659709 22.075128 -2.562241 1.342531 -1.638781 -0.510120 0.543730 0.364170 0.082920 
1.772830 17.773850 -1.601160 -2.957021 -17.968124 11.063332 -14.981521 12.989983 2.633580 9.191947 -1.468252 -16.987862 -6.170697 4.711708 11.423032 -1.191304 5.137021 3.439182 0.286740 -0.306230 -0.247700 18.455821 -11.206488 2.696519 -2.841909 1.247587 -9.033763 8.273357 -6.427954 13.536329 -0.620855 -4.855567 2.759857 0.105980 1.697880 1.353030 -3.906304 -0.536099 -6.631822 10.172793 2.907442 3.006548 -4.055736 2.797037 6.459280 2.900941 -0.855298 -8.557090 -0.926379 5.527753 19.403603 -7.379370 3.545360 -5.147590 -14.311020 -8.089817 2.457595 -7.005509 -5.019313 1.048677 14.017777 -15.693675 -2.999006 -4.899467 2.896281 0.693920 1.144870 -0.176330 0.872440 8.937760 9.270553 5.116046 14.758828 10.262362 -2.526509 -14.748842 22.303449 -2.675295 1.333291 -1.706216 -0.480360 0.524360 0.355150 0.127080 
1.811890 17.779880 -1.618200 -3.441979 -18.093906 11.349661 -14.959020 13.017858 2.614537 10.706635 -1.355697 -17.290913 -6.098690 4.886648 12.028478 -1.132545 5.204673 3.402307 0.312900 -0.247000 -0.251590 18.472763 -11.198119 2.695307 -2.395763 1.567536 -10.089428 8.338285 -6.550572 15.068525 -0.622381 -4.875563 2.755038 0.124620 1.690510 1.359550 -3.965203 -0.555932 -6.636703 11.244468 2.371434 3.076435 -4.547700 2.360330 6.580088 2.892960 -1.135832 -8.599634 -1.408079 5.929168 19.205137 -7.439190 3.897760 -4.836380 -14.423785 -8.305823 2.600199 -6.921321 -5.109503 1.058548 13.803737 -15.220299 -2.890400 -4.878672 2.931655 0.656990 1.149430 -0.159190 0.904700 9.024375 9.497956 5.077968 14.347508 10.353107 -2.509469 -14.820300 22.625182 -2.741366 1.351702 -1.741467 -0.447530 0.503440 0.308460 0.159490 
1.855350 17.789660 -1.639510 -3.865181 -18.443668 11.408072 -14.939339 13.067491 2.618395 12.039701 -1.239983 -17.394908 -6.150831 5.131725 12.807293 -1.040562 5.283269 3.340227 0.345190 -0.193180 -0.260510 18.475502 -11.199824 2.691603 -2.329933 2.139509 -11.672431 8.440934 -6.836720 17.736798 -0.634504 -4.972192 2.704171 0.120290 1.656230 1.388070 -3.992560 -0.584000 -6.676128 12.066285 1.858719 3.553847 -4.789236 1.977206 6.559295 2.958848 -1.337137 -8.801768 -1.776530 6.225892 19.364662 -7.239660 4.139910 -4.252610 -14.541498 -8.541487 2.862309 -7.180205 -4.777641 0.931932 14.954940 -14.032821 -2.898536 -4.851044 3.026701 0.615990 1.136170 -0.137650 0.927800 8.969981 9.848356 5.173884 13.730412 10.392769 -2.425076 -14.510252 22.355804 -2.668794 1.395841 -1.795059 -0.378550 0.429880 0.267290 0.194090 
1.895680 17.787340 -1.651690 -4.010468 -19.018291 11.401587 -14.931540 13.121794 2.591259 12.706842 -1.163552 -17.040176 -5.969325 5.270930 13.486465 -0.981657 5.313945 3.283053 0.401090 -0.110410 -0.245750 18.465029 -11.171324 2.715722 -3.322368 2.930636 -13.715522 9.864353 -7.589173 20.793926 -0.687951 -5.230833 2.565485 0.139250 1.597970 1.412750 -3.987934 -0.643754 -6.707956 12.274327 1.589082 4.091600 -4.717458 1.804511 6.288887 2.876161 -1.568550 -8.717444 -2.181509 6.584326 19.378855 -6.769280 4.214630 -4.629420 -14.632979 -8.298721 2.758224 -7.087418 -4.792950 0.863741 15.461124 -14.003020 -2.915628 -4.806110 3.121735 0.592170 1.101580 -0.101050 0.934710 9.203890 9.776316 5.066369 12.899850 10.304679 -2.376018 -14.220406 22.394639 -2.594399 1.429545 -1.836726 -0.308060 0.366810 0.233860 0.216820 
1.939640 17.774170 -1.656620 -3.863254 -19.557339 11.503762 -14.929258 13.142454 2.518600 12.662681 -1.208463 -16.496871 -5.375051 5.190145 13.891588 -1.006076 5.311431 3.279225 0.456570 -0.068020 -0.215600 18.457509 -11.115466 2.785893 -5.281548 3.923450 -16.544701 11.932333 -8.736057 24.206453 -0.752583 -5.688517 2.360305 0.171830 1.587850 1.425160 -3.990084 -0.660588 -6.711794 12.136297 1.331219 4.220180 -4.589530 1.591457 6.215814 2.695781 -1.659925 -8.601916 -2.305888 6.817018 18.920220 -6.200480 3.979670 -4.588580 -14.365915 -7.964836 2.774406 -7.059634 -4.003259 0.910986 14.972386 -15.428950 -2.947558 -4.765018 3.192290 0.596080 1.093150 -0.106460 0.949640 9.302346 9.520551 4.797113 12.486447 10.829648 -2.207799 -14.260391 21.688670 -2.616827 1.440079 -1.884217 -0.300060 0.343830 0.210520 0.213970 
1.981620 17.754240 -1.664650 -3.463669 -19.888006 11.503691 -14.945634 13.125953 2.452896 12.494579 -1.253395 -15.958671 -5.293051 5.295419 14.485621 -1.042769 5.386285 3.265863 0.466030 -0.054020 -0.199160 18.442048 -10.996604 2.919827 -7.776475 4.841776 -19.658161 14.225884 -10.120967 27.313681 -0.831546 -6.236593 2.149457 0.201110 1.599550 1.400930 -3.958031 -0.703451 -6.768974 11.617497 1.040297 4.588352 -4.806769 1.418730 6.083638 2.877337 -1.469892 -8.577238 -1.959375 6.766720 18.618438 -6.364860 3.984270 -4.893480 -14.019685 -7.737834 2.675194 -7.273038 -3.885189 0.887534 15.603254 -16.012450 -3.060311 -4.767547 3.146314 0.615340 1.101170 -0.112950 0.953400 8.599038 9.226946 4.733284 13.629277 11.361747 -2.061341 -14.710816 20.939494 -2.744707 1.428806 -1.879517 -0.338350 0.383990 0.204150 0.199440 
